PathFileType	4	(X/Y/Z)	D:\TRACE\v60_Jaco2_6-2-23\BothDRS_Motion2_1-platform.trc
DataRate	CameraRate	NumFrames	NumMarkers	Units	OrigDataRate	OrigDataStartFrame	OrigNumFrames
100.00	100.00	      42	5	mm	100.00	2813	      7500
Frame#	Time	Left_Front			Right_Front			Left_Aft			Right_Aft			Post			
		X1	Y1	Z1	X2	Y2	Z2	X3	Y3	Z3	X4	Y4	Z4	X5	Y5	Z5	

2813	28.120	-784.49139	59.90766	-624.55664	785.51349	60.63548	-629.87891	-692.59662	-28.21184	507.19812	749.05719	-30.25539	516.53009	2.07965	1379.51514	-846.64636	
2814	28.130	-785.86627	59.37231	-625.14520	784.41791	59.84830	-630.02930	-693.71271	-27.68174	506.81680	748.42389	-29.82918	516.39551	1.08256	1378.48682	-849.84943	
2815	28.140	-786.83142	58.20946	-625.30048	783.44775	58.68560	-630.30444	-694.68414	-26.92829	506.67728	747.64691	-29.06000	516.32489	0.02016	1377.15552	-852.92639	
2816	28.150	-787.44824	57.15201	-625.50708	782.44159	58.09808	-630.61267	-695.75092	-26.37650	506.64716	746.35913	-28.30993	516.12317	-0.89875	1376.15637	-855.66486	
2817	28.160	-788.76215	56.13985	-625.89728	781.25543	56.99786	-630.99744	-696.84937	-25.77634	506.41345	745.55316	-27.45057	515.94452	-1.47830	1374.85327	-858.27228	
2818	28.170	-790.03082	55.62623	-626.09479	780.29010	56.03355	-631.16498	-698.00427	-24.96735	506.17548	744.00079	-27.00633	515.90863	-2.61762	1373.40491	-860.36932	
2819	28.180	-791.05688	54.46648	-626.24744	779.09637	55.02292	-631.46515	-698.98212	-24.20248	505.93845	743.14038	-26.32259	515.59528	-4.28236	1371.95142	-862.08411	
2820	28.190	-792.03271	53.27459	-626.63049	777.79602	54.43191	-631.81610	-700.31409	-23.26720	505.57642	742.04456	-25.45078	515.35248	-5.17088	1370.77869	-863.73169	
2821	28.200	-793.00812	52.17073	-627.08411	776.77588	53.63008	-632.33813	-701.36780	-22.72698	505.42780	741.04871	-24.57358	515.17865	-6.20609	1369.07422	-864.98157	
2822	28.210	-794.36871	51.28899	-627.43469	775.90552	52.28279	-632.60785	-702.32458	-21.76427	505.30972	740.15613	-23.82249	514.98572	-7.81792	1367.40161	-866.43646	
2823	28.220	-795.56366	49.86956	-627.76917	774.76147	50.52286	-632.73383	-703.40430	-20.94718	505.17499	738.37793	-22.94328	514.80334	-8.82822	1365.73425	-867.95398	
2824	28.230	-796.51770	48.33709	-628.10016	773.54150	49.44009	-633.27771	-704.53876	-20.13539	504.87085	737.48444	-21.88698	514.37390	-9.44925	1364.08997	-870.15747	
2825	28.240	-797.47040	47.24530	-628.52496	772.55524	48.68729	-633.68213	-705.65881	-19.26222	504.81628	736.39520	-21.38603	514.06659	-10.52710	1362.52332	-873.27649	
2826	28.250	-798.86108	46.48995	-628.90918	771.30524	47.45871	-633.88989	-706.82184	-18.36710	504.50446	735.44177	-20.50287	513.87482	-11.82126	1361.18799	-876.66833	
2827	28.260	-800.02057	45.49176	-629.01886	770.01141	46.28767	-634.33533	-708.00635	-17.74429	504.31549	734.23846	-19.55256	513.73853	-13.07434	1359.71460	-880.99384	
2828	28.270	-800.85559	44.17466	-629.25714	769.12085	45.10104	-634.49475	-709.10303	-16.83747	504.22369	733.08380	-18.63420	513.74829	-14.58013	1358.21716	-884.78900	
2829	28.280	-802.13947	42.95164	-629.87585	767.90027	43.84119	-634.90875	-709.99591	-15.90009	504.01962	732.13440	-17.81109	513.46869	-15.34172	1356.53149	-888.41528	
2830	28.290	-803.33667	41.71288	-630.01947	766.89349	42.69211	-635.27612	-711.26324	-15.21954	503.65234	730.92700	-17.03345	513.11804	-16.29552	1354.93347	-891.82855	
2831	28.300	-804.67773	40.41323	-630.45654	765.65118	41.58584	-635.57617	-712.51544	-14.30506	503.46613	729.81250	-16.15859	512.81439	-17.40508	1353.22681	-894.92047	
2832	28.310	-805.54047	39.62302	-631.04950	764.60956	40.18242	-635.84601	-713.61340	-13.48142	503.07800	728.63477	-15.19352	512.57001	-18.82139	1351.65955	-897.53229	
2833	28.320	-806.52826	38.30107	-631.23126	763.40192	39.16247	-636.18292	-714.83728	-12.42278	502.84637	727.47327	-14.11084	512.62848	-20.09289	1350.00134	-900.19757	
2834	28.330	-807.91162	36.64836	-631.40521	762.15369	37.83041	-636.80927	-715.90228	-11.59555	502.55276	725.92529	-13.14270	512.32532	-21.32012	1348.31335	-902.61523	
2835	28.340	-809.24768	35.17665	-631.92456	761.02692	36.40759	-637.04218	-717.04773	-10.64349	502.12399	725.15643	-12.24380	511.92090	-22.26871	1345.90417	-904.20392	
2836	28.350	-810.12915	34.09796	-632.52478	759.94629	35.09483	-637.30640	-718.14325	-9.76915	501.94666	723.97650	-11.40313	511.46576	-23.17078	1343.98828	-906.27008	
2837	28.360	-811.05811	32.84071	-632.82294	758.82001	33.65412	-637.69128	-719.12677	-8.87461	501.68411	723.04102	-10.24313	511.22900	-24.56012	1342.09351	-908.43890	
2838	28.370	-812.39050	31.14508	-633.12561	757.70245	32.25169	-638.11365	-720.47253	-7.64749	501.36023	721.89038	-9.15441	511.19064	-26.21292	1340.29224	-910.96539	
2839	28.380	-813.70020	29.90268	-633.51221	756.63501	31.16743	-638.40833	-721.44922	-6.85818	501.01440	720.67212	-8.19093	510.76715	-27.15021	1338.26257	-913.58844	
2840	28.390	-814.83643	28.28115	-633.49481	755.40173	29.75403	-638.81543	-722.64642	-5.84762	500.95099	719.57349	-7.35273	510.49219	-28.13700	1336.44458	-917.00446	
2841	28.400	-815.63898	27.06416	-634.10193	754.21222	28.08505	-639.23138	-723.83545	-4.97373	500.57520	718.24396	-6.62205	510.08594	-28.96136	1334.35107	-920.51563	
2842	28.410	-816.77283	26.07909	-634.67731	753.04675	26.94748	-639.50098	-725.04657	-4.15060	500.27722	717.45996	-5.46844	509.91476	-29.88991	1332.54993	-924.27954	
2843	28.420	-818.21002	24.64075	-634.81860	752.09998	25.58835	-639.95905	-726.12756	-3.18313	499.98807	716.31567	-4.57585	509.74887	-31.43224	1330.64355	-928.24817	
2844	28.430	-819.08795	22.87535	-635.15411	750.73712	24.21010	-640.34399	-727.08276	-2.19579	499.80569	715.06689	-3.65896	509.67935	-32.99836	1328.70337	-931.97827	
2845	28.440	-820.30389	21.75835	-635.37146	749.78864	23.00302	-640.54358	-728.34119	-1.04414	499.42206	713.54480	-2.78818	509.34088	-33.69360	1326.78284	-935.33502	
2846	28.450	-821.22968	20.43706	-635.98199	748.79462	21.54877	-640.92023	-729.34894	-0.17736	499.21158	712.66656	-1.64038	509.08209	-34.63982	1324.71460	-938.65906	
2847	28.460	-822.66779	18.95093	-636.10291	747.64136	20.04234	-641.37561	-730.47467	0.76651	498.74045	711.93414	-0.44823	508.90121	-35.83682	1322.72925	-941.88837	
2848	28.470	-823.43884	17.46111	-636.71191	746.62384	18.64774	-641.83929	-731.60260	1.72236	498.39487	710.81525	0.69682	508.59015	-36.52915	1320.37610	-944.41815	
2849	28.480	-824.59906	15.98393	-636.82410	745.64154	17.18502	-641.98016	-732.66870	3.01671	498.19293	710.04156	1.76997	508.20584	-37.86303	1318.36951	-947.01807	
2850	28.490	-825.50342	14.31088	-637.18512	744.46204	15.82026	-642.31256	-733.88965	4.20039	497.70520	708.32593	2.58489	507.83759	-39.30053	1316.42065	-949.54730	
2851	28.500	-826.76709	13.36934	-637.83136	743.36865	14.34894	-642.86523	-735.08270	5.23449	497.61862	707.54712	3.48809	507.37943	-40.45750	1314.19690	-952.09790	
2852	28.510	-827.89215	11.79489	-637.92523	742.45813	13.11384	-642.97186	-736.24921	6.40799	497.49680	705.96057	4.49562	506.99716	-41.45765	1312.09741	-954.83752	
2853	28.520	-828.79950	10.18660	-638.28955	741.31830	11.48297	-643.39923	-736.85748	6.84150	496.61749	704.14728	4.98787	506.25775	-42.28411	1310.00024	-957.52533	
2854	28.530	-829.74750	8.73014	-638.69135	740.28845	10.17756	-643.79041	-737.80621	7.63286	496.34647	705.36414	7.55321	506.92999	-43.16916	1308.03308	-960.93817	
